<svg xmlns="http://www.w3.org/2000/svg" viewBox="0 0 512 512" role="img" aria-label="Schafkopf Tracker App Icon">
  <defs>
    <linearGradient id="bg" x1="70" y1="28" x2="445" y2="488" gradientUnits="userSpaceOnUse">
      <stop stop-color="#17341f"/>
      <stop offset="0.52" stop-color="#0b1a13"/>
      <stop offset="1" stop-color="#07100b"/>
    </linearGradient>
    <linearGradient id="felt" x1="96" y1="80" x2="418" y2="450" gradientUnits="userSpaceOnUse">
      <stop stop-color="#235534"/>
      <stop offset="1" stop-color="#102718"/>
    </linearGradient>
    <linearGradient id="card" x1="140" y1="105" x2="358" y2="392" gradientUnits="userSpaceOnUse">
      <stop stop-color="#fff6d8"/>
      <stop offset="1" stop-color="#dfc989"/>
    </linearGradient>
    <filter id="shadow" x="-20%" y="-20%" width="140%" height="150%">
      <feDropShadow dx="0" dy="16" stdDeviation="18" flood-color="#000000" flood-opacity="0.45"/>
    </filter>
  </defs>

  <rect width="512" height="512" rx="108" fill="url(#bg)"/>
  <rect x="34" y="34" width="444" height="444" rx="92" fill="none" stroke="#d9b45a" stroke-width="8" opacity="0.9"/>
  <rect x="56" y="58" width="400" height="396" rx="72" fill="url(#felt)" stroke="#2f7a46" stroke-width="3"/>

  <g filter="url(#shadow)">
    <g transform="translate(132 102) rotate(-15 78 142)">
      <rect width="156" height="250" rx="18" fill="url(#card)" stroke="#5b4324" stroke-width="5"/>
      <rect x="13" y="13" width="130" height="224" rx="11" fill="none" stroke="#8b6a36" stroke-width="3" opacity="0.45"/>
      <g transform="translate(78 118)">
        <path d="M0-50 C-24-50-42-32-42-8 C-42 18-22 43 0 62 C22 43 42 18 42-8 C42-32 24-50 0-50Z" fill="#b92727"/>
        <circle cx="-18" cy="-21" r="24" fill="#b92727"/>
        <circle cx="18" cy="-21" r="24" fill="#b92727"/>
      </g>
    </g>

    <g transform="translate(220 102) rotate(15 78 142)">
      <rect width="156" height="250" rx="18" fill="url(#card)" stroke="#5b4324" stroke-width="5"/>
      <rect x="13" y="13" width="130" height="224" rx="11" fill="none" stroke="#8b6a36" stroke-width="3" opacity="0.45"/>
      <g transform="translate(78 118)">
        <circle cx="0" cy="-28" r="28" fill="#d69b24"/>
        <path d="M-31-23 Q0-65 31-23 L23 44 Q0 62-23 44Z" fill="#e9bb3f"/>
        <rect x="-10" y="36" width="20" height="42" rx="8" fill="#8a5a1f"/>
        <path d="M-22-7 H22 M-26 14 H26 M-18 35 H18" stroke="#9a6a24" stroke-width="8" stroke-linecap="round" opacity="0.75"/>
      </g>
    </g>

    <g transform="translate(178 82)">
      <rect width="156" height="270" rx="20" fill="url(#card)" stroke="#5b4324" stroke-width="6"/>
      <rect x="15" y="15" width="126" height="240" rx="12" fill="none" stroke="#8b6a36" stroke-width="3" opacity="0.5"/>
      <g transform="translate(78 133)">
        <ellipse cx="-24" cy="16" rx="22" ry="44" transform="rotate(-38 -24 16)" fill="#27753a"/>
        <ellipse cx="24" cy="16" rx="22" ry="44" transform="rotate(38 24 16)" fill="#27753a"/>
        <ellipse cx="0" cy="-26" rx="22" ry="46" fill="#338a45"/>
        <rect x="-8" y="18" width="16" height="64" rx="7" fill="#2b6b35"/>
      </g>
    </g>
  </g>

  <g transform="translate(256 312)">
    <circle cx="0" cy="0" r="84" fill="#0d2114" stroke="#d9b45a" stroke-width="8"/>
    <circle cx="0" cy="0" r="64" fill="#173c22" stroke="#3d8a4f" stroke-width="4"/>
    <g transform="translate(0 -5)">
      <ellipse cx="0" cy="-22" rx="36" ry="18" fill="#7a4d20"/>
      <ellipse cx="0" cy="-9" rx="44" ry="14" fill="#9a672c"/>
      <ellipse cx="0" cy="34" rx="38" ry="48" fill="#d9a03a"/>
      <path d="M-31-8 Q0 15 31-8" fill="none" stroke="#6f431c" stroke-width="8" stroke-linecap="round" opacity="0.75"/>
      <ellipse cx="-13" cy="19" rx="10" ry="18" fill="#f3c35e" opacity="0.55"/>
    </g>
  </g>

  <text x="256" y="446" text-anchor="middle" font-family="Georgia, 'Times New Roman', serif" font-size="58" font-weight="800" fill="#f2d27a" letter-spacing="4">SK</text>
</svg>
